#!OML:ASF X:\für Bonn\!DataBase\2005_08_12_Daniel\c3d\Daniel.ASF
:FULLY-SPECIFIED
:DEGREES
96
root 9.26934 16.2616 10.0914 895.454 -50.272 -184.66
lowerback 39.8588 4.44188 -7.08645
upperback 8.64536 -0.384815 -5.79242
thorax -9.69416 -0.960218 -2.24843
lowerneck 0.73736 0.00633502 -4.12056
upperneck 1.52822 -0.0806521 4.84998
head 0.354785 -0.0544533 2.22855
rclavicle -7.63333e-014 -3.33958e-014
rhumerus -36.7432 -2.4962 -86.3919
rradius 65.7274
rwrist 9.41338
rhand -31.9655 8.07432
rfingers 7.12502
rthumb -5.2154 -21.8415
lclavicle -7.63333e-014 -3.33958e-014
lhumerus -26.7004 20.7033 77.7305
lradius 69.7762
lwrist -28.1782
lhand -26.8764 3.66698
lfingers 7.12502
lthumb -0.300733 33.6465
rfemur -4.97177 -4.96692 16.0168
rtibia 72.722
rfoot -11.0939 6.39998
rtoes -14.9607
lfemur -26.9093 1.44697 -25.8487
ltibia 59.8286
lfoot -23.7782 -12.1238
ltoes -1.29821
97
root 9.18527 16.2703 10.0237 895.239 -50.1268 -184.561
lowerback 39.7951 4.34583 -7.01617
upperback 8.70353 -0.467818 -5.76898
thorax -9.61029 -1.00541 -2.22215
lowerneck 0.588474 0.0544154 -4.15492
upperneck 1.65276 -0.0152234 4.83146
head 0.416131 -0.0201031 2.2293
rclavicle -9.70069e-014 9.54166e-015
rhumerus -36.7758 -2.52289 -86.4762
rradius 65.8455
rwrist 9.53729
rhand -31.9533 7.9375
rfingers 7.12502
rthumb -5.20368 -21.9786
lclavicle -9.70069e-014 9.54166e-015
lhumerus -26.7262 20.6324 77.7221
lradius 69.8897
lwrist -27.9657
lhand -26.876 3.75173
lfingers 7.12502
lthumb -0.300336 33.7313
rfemur -6.18565 -4.8387 16.0217
rtibia 73.1453
rfoot -11.9574 6.68308
rtoes -14.2599
lfemur -26.2697 1.17774 -25.8249
ltibia 59.7968
lfoot -24.15 -11.662
ltoes -1.13632
98
root 9.10111 16.279 9.95587 895.014 -49.9804 -184.462
lowerback 39.7208 4.2524 -6.94136
upperback 8.78134 -0.546872 -5.74676
thorax -9.5011 -1.05106 -2.20108
lowerneck 0.436456 0.10323 -4.1165
upperneck 1.73655 0.0538674 4.75839
head 0.464917 0.0163767 2.19887
rclavicle 3.65764e-014 -1.59028e-014
rhumerus -36.7423 -2.58348 -86.5829
rradius 65.9299
rwrist 9.59506
rhand -31.8997 7.7998
rfingers 7.12502
rthumb -5.15185 -22.1176
lclavicle 3.65764e-014 -1.59028e-014
lhumerus -26.6784 20.5621 77.7331
lradius 69.9482
lwrist -27.6864
lhand -26.8798 3.79678
lfingers 7.12502
lthumb -0.304041 33.7763
rfemur -7.38801 -4.72424 16.0187
rtibia 73.4973
rfoot -12.7773 6.97271
rtoes -13.7093
lfemur -25.6147 0.907096 -25.8051
ltibia 59.7637
lfoot -24.5402 -11.2135
ltoes -1.01216
99
root 9.01681 16.2868 9.88895 894.752 -49.8166 -184.337
lowerback 39.6753 4.15617 -6.87496
upperback 8.83203 -0.632762 -5.71029
thorax -9.43118 -1.09724 -2.15842
lowerneck 0.366776 0.16737 -4.06891
upperneck 1.80418 0.141155 4.66762
head 0.493687 0.0607513 2.16092
rclavicle -5.08889e-014 -7.31528e-014
rhumerus -36.769 -2.58504 -86.6994
rradius 66.0255
rwrist 9.68127
rhand -31.8737 7.62377
rfingers 7.12502
rthumb -5.12682 -22.2942
lclavicle -5.08889e-014 -7.31528e-014
lhumerus -26.694 20.4754 77.7267
lradius 70.031
lwrist -27.3847
lhand -26.911 3.9611
lfingers 7.12502
lthumb -0.334097 33.9406
rfemur -8.55783 -4.56951 16.058
rtibia 73.7483
rfoot -13.4849 7.25785
rtoes -13.3512
lfemur -24.9406 0.657349 -25.7788
ltibia 59.7201
lfoot -24.9792 -10.7326
ltoes -1.19725
100
root 8.93289 16.2928 9.82104 894.549 -49.6527 -184.265
lowerback 39.5877 4.07377 -6.83895
upperback 8.90224 -0.710705 -5.67865
thorax -9.32476 -1.14162 -2.10846
lowerneck 0.248879 0.218987 -3.96968
upperneck 1.88114 0.213604 4.54663
head 0.534334 0.0984883 2.10401
rclavicle 4.45278e-014 -6.20208e-014
rhumerus -36.7752 -2.63924 -86.8198
rradius 66.1499
rwrist 9.80186
rhand -31.8433 7.45792
rfingers 7.12502
rthumb -5.09747 -22.4608
lclavicle 4.45278e-014 -6.20208e-014
lhumerus -26.67 20.399 77.7509
lradius 70.0967
lwrist -27.1471
lhand -26.9518 4.11813
lfingers 7.12502
lthumb -0.373532 34.0975
rfemur -9.71596 -4.3397 16.1046
rtibia 73.8951
rfoot -14.1243 7.50327
rtoes -13.0614
lfemur -24.2769 0.390744 -25.7937
ltibia 59.6722
lfoot -25.4377 -10.2674
ltoes -1.42019
101
root 8.84897 16.2992 9.75404 894.3 -49.4982 -184.143
lowerback 39.5219 3.96942 -6.77179
upperback 8.95732 -0.802511 -5.63736
thorax -9.24317 -1.19067 -2.05893
lowerneck 0.14998 0.28047 -3.86387
upperneck 1.96975 0.298264 4.41178
head 0.574909 0.141936 2.0417
rclavicle 5.1684e-014 8.90555e-014
rhumerus -36.7774 -2.69352 -86.9419
rradius 66.2164
rwrist 9.93187
rhand -31.8066 7.32851
rfingers 7.12502
rthumb -5.06204 -22.591
lclavicle 5.1684e-014 8.90555e-014
lhumerus -26.6879 20.3336 77.7665
lradius 70.1913
lwrist -26.8492
lhand -26.9911 4.30451
lfingers 7.12502
lthumb -0.41154 34.2839
rfemur -10.8492 -4.1123 16.2149
rtibia 73.9344
rfoot -14.726 7.66522
rtoes -12.8546
lfemur -23.606 0.130556 -25.7827
ltibia 59.6189
lfoot -25.8772 -9.79802
ltoes -1.55039
